UNKNOWN
version=1
nRows=77
nColumns=6
inDegrees=no
endheader
time	time	pelvis_tilt	hip_flexion_r	knee_angle_r	ankle_angle_r
    235.00000000	      6.72000000	      2.58618485	      8.40672967	      5.16540081	      2.97444061
    236.00000000	      6.73000000	      2.46000167	      8.80845008	      3.98624104	      3.37559224
    237.00000000	      6.74000000	      2.21347223	      9.20598094	      2.21427460	      3.29616496
    238.00000000	      6.75000000	      1.87914028	      9.59548187	      0.03822090	      2.63272460
    239.00000000	      6.76000000	      1.46977351	      9.90615711	     -2.22814208	      1.42615837
    240.00000000	      6.77000000	      0.98935772	     10.08924138	     -4.38244696	     -0.15536243
    241.00000000	      6.78000000	      0.48936882	     10.07253999	     -6.28393586	     -1.86187743
    242.00000000	      6.79000000	     -0.07534026	      9.87431795	     -7.97570880	     -3.34976279
    243.00000000	      6.80000000	     -0.70310208	      9.52528279	     -9.56365862	     -4.29651428
    244.00000000	      6.81000000	     -1.39135919	      9.09397865	    -11.13160789	     -4.57680561
    245.00000000	      6.82000000	     -2.10716918	      8.63838416	    -12.73542380	     -4.22221048
    246.00000000	      6.83000000	     -2.79818909	      8.16785309	    -14.30564157	     -3.44266076
    247.00000000	      6.84000000	     -3.40045376	      7.67106195	    -15.71111252	     -2.48086841
    248.00000000	      6.85000000	     -3.84618083	      7.15187324	    -16.84903738	     -1.50422368
    249.00000000	      6.86000000	     -4.19956780	      6.40629961	    -17.57570015	     -0.62598929
    250.00000000	      6.87000000	     -4.45704159	      5.44705714	    -17.87220452	      0.09551175
    251.00000000	      6.88000000	     -4.63673019	      4.25292543	    -17.76397898	      0.62787229
    252.00000000	      6.89000000	     -4.74828336	      2.83471136	    -17.33143402	      0.95465533
    253.00000000	      6.90000000	     -4.74298853	      1.35931716	    -16.69355158	      1.15293144
    254.00000000	      6.91000000	     -4.61673361	     -0.06616764	    -15.96456234	      1.29310036
    255.00000000	      6.92000000	     -4.39274825	     -1.43349434	    -15.22971855	      1.37184636
    256.00000000	      6.93000000	     -4.09773179	     -2.71538269	    -14.53436614	      1.47924008
    257.00000000	      6.94000000	     -3.73923281	     -3.94057093	    -13.88036979	      1.65423979
    258.00000000	      6.95000000	     -3.35822994	     -5.10360574	    -13.25179434	      1.86454493
    259.00000000	      6.96000000	     -2.97911313	     -6.18938927	    -12.61537759	      2.11665605
    260.00000000	      6.97000000	     -2.65315345	     -7.36307565	    -11.88316322	      2.31094822
    261.00000000	      6.98000000	     -2.36402244	     -8.48705455	    -11.13341725	      2.54322490
    262.00000000	      6.99000000	     -2.10871941	     -9.67126468	    -10.32304899	      2.73791048
    263.00000000	      7.00000000	     -1.88601929	    -10.89165265	     -9.46613089	      2.89634304
    264.00000000	      7.01000000	     -1.68527837	    -12.11971559	     -8.58916772	      3.02339229
    265.00000000	      7.02000000	     -1.53000897	    -13.37233132	     -7.70722226	      3.15350349
    266.00000000	      7.03000000	     -1.38967205	    -14.64207566	     -6.83667855	      3.24799547
    267.00000000	      7.04000000	     -1.28196310	    -15.83747657	     -6.05708461	      3.40235154
    268.00000000	      7.05000000	     -1.22635615	    -17.02313073	     -5.32572737	      3.54876944
    269.00000000	      7.06000000	     -1.21410881	    -18.24816158	     -4.61015002	      3.69179882
    270.00000000	      7.07000000	     -1.28113187	    -19.42793627	     -3.93778482	      3.88943730
    271.00000000	      7.08000000	     -1.47339251	    -20.55407557	     -3.26699152	      4.05969884
    272.00000000	      7.09000000	     -1.74227530	    -21.66838431	     -2.60482531	      4.26642870
    273.00000000	      7.10000000	     -2.02365664	    -22.86110996	     -1.94106809	      4.48006793
    274.00000000	      7.11000000	     -2.38773531	    -24.01906964	     -1.29622288	      4.71965024
    275.00000000	      7.12000000	     -2.81776947	    -25.15347662	     -0.69587545	      4.96147839
    276.00000000	      7.13000000	     -3.20620730	    -26.40129984	     -0.08580703	      5.26101033
    277.00000000	      7.14000000	     -3.66308224	    -27.61314107	      0.43075444	      5.57409302
    278.00000000	      7.15000000	     -4.09461109	    -28.85516860	      0.90899894	      5.91387665
    279.00000000	      7.16000000	     -4.63383365	    -30.11475920	      1.20682413	      6.23639300
    280.00000000	      7.17000000	     -5.31820070	    -31.27327214	      1.28956007	      6.54749479
    281.00000000	      7.18000000	     -6.25792418	    -32.28786515	      1.00816652	      6.87157606
    282.00000000	      7.19000000	     -7.41626260	    -33.09496882	      0.32564830	      7.22095773
    283.00000000	      7.20000000	     -7.09267304	    -34.46086838	      0.69019305	      7.51397534
    284.00000000	      7.21000000	     -6.46658189	    -35.64695184	      0.91283992	      7.83369848
    285.00000000	      7.22000000	     -6.93689765	    -36.17137044	     -0.11552865	      8.19820002
    286.00000000	      7.23000000	     -7.23078781	    -36.51658930	     -1.35677503	      8.53329738
    287.00000000	      7.24000000	     -7.44786112	    -36.67445946	     -2.95463626	      8.87976639
    288.00000000	      7.25000000	     -7.85724898	    -36.44933557	     -5.03207950	      9.17129624
    289.00000000	      7.26000000	     -8.45587816	    -35.93501782	     -7.50375489	      9.34799035
    290.00000000	      7.27000000	     -7.21922817	    -36.21195501	     -8.55748639	      9.17404980
    291.00000000	      7.28000000	     -5.70935233	    -36.49737916	     -9.52453039	      8.71257652
    292.00000000	      7.29000000	     -5.65119361	    -35.91803590	    -12.24109093	      8.06587743
    293.00000000	      7.30000000	     -5.46041641	    -35.06961779	    -15.39471088	      6.90898294
    294.00000000	      7.31000000	     -4.98156835	    -34.17305898	    -18.44371167	      5.21612336
    295.00000000	      7.32000000	     -4.27838620	    -33.33410402	    -21.09055117	      3.23214991
    296.00000000	      7.33000000	     -3.56656909	    -31.94733282	    -24.80227620	      0.23187885
    297.00000000	      7.34000000	     -2.66049682	    -30.28495127	    -28.52360249	     -3.20230462
    298.00000000	      7.35000000	     -1.67383253	    -28.34903695	    -32.42282510	     -7.20860379
    299.00000000	      7.36000000	     -0.75354945	    -26.22367654	    -36.31139028	    -11.74005014
    300.00000000	      7.37000000	      0.06868417	    -24.11393872	    -40.02137975	    -16.37641429
    301.00000000	      7.38000000	      0.73583419	    -22.12021528	    -43.44093902	    -20.51324944
    302.00000000	      7.39000000	      1.24114436	    -20.21554861	    -46.54396129	    -23.42727493
    303.00000000	      7.40000000	      1.60464759	    -18.43923982	    -49.32222973	    -24.50055951
    304.00000000	      7.41000000	      1.82153630	    -16.77143639	    -51.78085813	    -23.55336326
    305.00000000	      7.42000000	      1.49107752	    -14.86946679	    -54.40907334	    -23.40830552
    306.00000000	      7.43000000	      1.03849770	    -12.78363169	    -56.82854494	    -22.52947140
    307.00000000	      7.44000000	      0.87690535	    -10.93680736	    -58.55293890	    -19.37574884
    308.00000000	      7.45000000	      0.61993979	     -9.04569616	    -59.98060500	    -16.61881135
    309.00000000	      7.46000000	      0.35099818	     -7.09666427	    -61.11872336	    -14.44332892
    310.00000000	      7.47000000	      0.09861355	     -5.17284844	    -61.93937270	    -12.84901437
    311.00000000	      7.48000000	     -0.12287171	     -3.30434487	    -62.43661155	    -11.71062592
